PathFileType	4	(X/Y/Z)	/Users/itak/Documents/Research/Walk-IL/dataset/trc/00516_00183.trc
DataRate	CameraRate	NumFrames	NumMarkers	Units	OrigDataRate	OrigDataStartFrame	OrigNumFrames
100.000000	100.000000	4	54	mm	100.000000	163	437
Frame#	Time	RPSI			LPSI			L3			STRN			T10			C7			CLAV			RBAK			LBAK			LSHO			LUPA			LAEL			LAOL			LWTS			LWPS			LFRA			LHPS			LHTS			RSHO			RUPA			RAEL			RAOL			RWTS			RWPS			RFRA			RIFD			RHTS			RHPS			RBHD			LFHD			RFHD			LBHD			LHIP			RHIP			RASI			LASI			LKNE			LTHI			LANK			LTIP			LTOE			LMT1			LMT5			LHEE			RKNE			RTHI			RANK			RTIP			RTOE			RMT1			RMT5			RHEE			LIFD			*53			
		X1	Y1	Z1	X2	Y2	Z2	X3	Y3	Z3	X4	Y4	Z4	X5	Y5	Z5	X6	Y6	Z6	X7	Y7	Z7	X8	Y8	Z8	X9	Y9	Z9	X10	Y10	Z10	X11	Y11	Z11	X12	Y12	Z12	X13	Y13	Z13	X14	Y14	Z14	X15	Y15	Z15	X16	Y16	Z16	X17	Y17	Z17	X18	Y18	Z18	X19	Y19	Z19	X20	Y20	Z20	X21	Y21	Z21	X22	Y22	Z22	X23	Y23	Z23	X24	Y24	Z24	X25	Y25	Z25	X26	Y26	Z26	X27	Y27	Z27	X28	Y28	Z28	X29	Y29	Z29	X30	Y30	Z30	X31	Y31	Z31	X32	Y32	Z32	X33	Y33	Z33	X34	Y34	Z34	X35	Y35	Z35	X36	Y36	Z36	X37	Y37	Z37	X38	Y38	Z38	X39	Y39	Z39	X40	Y40	Z40	X41	Y41	Z41	X42	Y42	Z42	X43	Y43	Z43	X44	Y44	Z44	X45	Y45	Z45	X46	Y46	Z46	X47	Y47	Z47	X48	Y48	Z48	X49	Y49	Z49	X50	Y50	Z50	X51	Y51	Z51	X52	Y52	Z52	X53	Y53	Z53	X54	Y54	Z54	

164	1.63	-900.9430541992188	957.3840942382812	-374.5173034667969	-875.8328247070312	954.8103637695312	-495.651611328125	-881.10107421875	1031.953247070312	-448.1259460449219	-643.0896606445312	1169.677124023438	-418.3318786621094	-882.825927734375	1137.750366210938	-452.3036804199219	-804.9658203125	1359.555541992188	-438.161865234375	-665.6558227539062	1268.56103515625	-420.2055969238281	-882.4645385742188	1246.113647460938	-362.8927001953125	-824.6954956054688	1308.114013671875	-528.4234008789062	-717.5103759765625	1347.227783203125	-588.4384765625	-733.814453125	1222.980102539062	-652.1424560546875	-739.0525512695312	1013.223022460938	-684.2275390625	-816.5594482421875	1009.9677734375	-620.7071533203125	-680.6119384765625	810.5693359375	-641.1774291992188	-760.50146484375	787.8672485351562	-687.70654296875	-730.7197875976562	925.43994140625	-686.9795532226562	-743.9248657226562	731.8173217773438	-684.8352661132812	-681.4990844726562	733.6820068359375	-663.6626586914062	-776.1991577148438	1347.80615234375	-284.0321960449219	-813.7162475585938	1285.540283203125	-234.42724609375	-880.3374633789062	1027.840698242188	-195.2935180664062	-918.4634399414062	1018.3486328125	-248.6010437011719	-825.32177734375	805.6446533203125	-193.3029327392578	-915.394775390625	801.0633544921875	-175.4212493896484	-892.1537475585938	974.5222778320312	-188.2161865234375	-863.1378784179688	651.0274658203125	-190.8122863769531	-842.916748046875	714.7606201171875	-166.0704345703125	-911.8653564453125	729.0318603515625	-168.4196014404297	-765.616943359375	1501.049438476562	-337.2518310546875	-607.3759155273438	1563.482421875	-443.5442504882812	-637.5324096679688	1549.186157226562	-320.4530029296875	-742.3760375976562	1516.000122070312	-494.4532165527344	-760.166748046875	865.9672241210938	-607.472900390625	-809.0670776367188	868.0610961914062	-227.7938079833984	-709.2872314453125	905.451416015625	-289.64208984375	-672.0698852539062	895.79052734375	-529.4321899414062	-826.4968872070312	453.7588806152344	-555.8466186523438	-780.252685546875	604.674072265625	-579.7664184570312	-995.8560791015625	48.48268127441406	-540.8551635742188	-886.0568237304688	314.4420471191406	-556.9249267578125	-811.71044921875	40.02275848388672	-449.9642028808594	-893.5961303710938	43.23752593994141	-429.3607177734375	-886.067626953125	45.08432006835938	-530.7279052734375	-1054.899536132812	43.68998718261719	-488.7957153320312	-640.2298583984375	516.550048828125	-267.474853515625	-742.8726806640625	751.4757080078125	-228.869140625	-697.5782470703125	80.80757904052734	-269.8108215332031	-618.3536987304688	371.6833190917969	-266.4337463378906	-498.5797729492188	85.10726928710938	-271.2537841796875	-550.4363403320312	78.25474548339844	-322.5776977539062	-592.26513671875	78.52683258056641	-234.3885955810547	-739.8870849609375	70.74495697021484	-325.5753173828125	-701.548828125	655.4639282226562	-637.1920166015625	nan	nan	nan	
165	1.64	-895.7589721679688	955.8222045898438	-373.2163696289062	-871.1175537109375	953.287841796875	-494.4375610351562	-876.1176147460938	1030.848388671875	-447.0361328125	-637.77099609375	1168.169677734375	-417.5725402832031	-877.4609985351562	1136.712158203125	-451.1141967773438	-799.2445678710938	1358.35498046875	-436.8721618652344	-660.1688232421875	1267.092407226562	-419.2373657226562	-876.9259643554688	1245.0302734375	-361.6552124023438	-819.2305908203125	1307.06494140625	-527.2048950195312	-712.053955078125	1346.084106445312	-587.3290405273438	-728.3486328125	1221.850341796875	-651.09326171875	-733.048095703125	1012.055236816406	-683.2843017578125	-810.800048828125	1008.637878417969	-620.0764770507812	-673.9478149414062	809.787353515625	-639.7984008789062	-753.2373046875	786.638916015625	-686.5606689453125	-724.3287963867188	924.3150634765625	-685.8292236328125	-736.3599853515625	730.7149658203125	-683.6199951171875	-674.198974609375	732.9027709960938	-662.3089599609375	-770.325439453125	1346.281860351562	-282.7641906738281	-808.0667114257812	1284.103881835938	-233.3464050292969	-876.4640502929688	1026.788330078125	-195.1394195556641	-914.4573364257812	1017.748291015625	-248.6101379394531	-823.2870483398438	804.0906372070312	-193.6019439697266	-913.4483032226562	800.2220458984375	-176.1636352539062	-888.7025756835938	973.5396118164062	-188.2506103515625	-862.4638671875	649.7832641601562	-191.8966217041016	-841.7684936523438	713.2574462890625	-166.8073120117188	-910.59716796875	728.1608276367188	-169.3685607910156	-760.2366943359375	1499.128662109375	-335.7475280761719	-602.2183837890625	1562.523193359375	-441.84326171875	-632.4154052734375	1547.8291015625	-318.7750549316406	-736.9888916015625	1514.503540039062	-492.934326171875	-755.5193481445312	864.7009887695312	-606.652587890625	-803.1874389648438	866.8770141601562	-226.8773345947266	-703.5379638671875	904.4559326171875	-289.0262756347656	-667.0853271484375	894.8004760742188	-528.9638061523438	-822.75732421875	452.9396667480469	-554.56591796875	-775.8286743164062	603.5621948242188	-578.5359497070312	-995.62890625	48.90018463134766	-540.6004028320312	-883.4447631835938	313.91796875	-555.7393188476562	-811.6024780273438	39.66963577270508	-449.7721862792969	-893.5863647460938	43.0327262878418	-429.0510559082031	-885.9065551757812	45.12559509277344	-530.4865112304688	-1054.879150390625	44.39368438720703	-488.6438598632812	-633.9108276367188	515.5872802734375	-265.9464416503906	-736.8421020507812	750.4564208984375	-227.7804412841797	-678.1261596679688	77.72130584716797	-266.3544616699219	-608.0877685546875	370.8445434570312	-264.6094055175781	-479.3721923828125	87.72663879394531	-270.5133666992188	-531.6434326171875	79.20093536376953	-321.1168212890625	-572.2984619140625	78.52578735351562	-232.3765411376953	-720.8114624023438	66.27893829345703	-321.5694580078125	-693.6510620117188	654.6507568359375	-635.8169555664062	nan	nan	nan	
166	1.65	-890.4093017578125	954.1920776367188	-371.8560791015625	-866.2308959960938	951.7015991210938	-493.1514282226562	-870.9635620117188	1029.674682617188	-445.8450317382812	-632.3032836914062	1166.600341796875	-416.7421875	-871.935791015625	1135.588623046875	-449.7933044433594	-793.3936157226562	1357.086791992188	-435.5008544921875	-654.5466918945312	1265.56201171875	-418.20751953125	-871.265869140625	1243.892456054688	-360.3283996582031	-813.6420288085938	1305.942138671875	-525.9022827148438	-706.49658203125	1344.864013671875	-586.1538696289062	-722.7720947265625	1220.63720703125	-649.9771118164062	-726.9065551757812	1010.801208496094	-682.2408447265625	-804.9043579101562	1007.225341796875	-619.3511352539062	-667.042236328125	808.986572265625	-638.2742309570312	-745.7828369140625	785.3429565429688	-685.2898559570312	-717.7930908203125	923.110595703125	-684.5676879882812	-728.5534057617188	729.5430297851562	-682.263916015625	-666.6698608398438	732.0924682617188	-660.8014526367188	-764.3068237304688	1344.690185546875	-281.4161682128906	-802.2532348632812	1282.59765625	-232.1789093017578	-872.3890380859375	1025.665405273438	-194.9219360351562	-910.2648315429688	1017.084716796875	-248.5358276367188	-820.990966796875	802.5008544921875	-193.9029541015625	-911.2313232421875	799.2940673828125	-176.8712768554688	-885.0425415039062	972.486083984375	-188.2296752929688	-861.4691162109375	648.4953002929688	-193.0544281005859	-840.3186645507812	711.7034912109375	-167.6099700927734	-909.027587890625	727.2089233398438	-170.3372192382812	-754.736572265625	1497.140014648438	-334.1806945800781	-596.94189453125	1561.483642578125	-440.0502319335938	-627.1753540039062	1546.392578125	-317.0221557617188	-731.4595947265625	1512.930908203125	-491.3394775390625	-750.6480102539062	863.3829956054688	-605.767333984375	-797.1801147460938	865.5802612304688	-225.9078521728516	-697.6399536132812	903.3671875	-288.3359680175781	-661.9631958007812	893.745849609375	-528.4231567382812	-818.8535766601562	452.0654602050781	-553.2191162109375	-771.2118530273438	602.4102172851562	-577.2761840820312	-995.4058837890625	49.39973449707031	-540.3311157226562	-880.6792602539062	313.3639221191406	-554.4698486328125	-811.4954223632812	39.32238388061523	-449.5600280761719	-893.5765991210938	42.8314094543457	-428.7184448242188	-885.7633666992188	45.19417190551758	-530.213134765625	-1054.857177734375	45.2218132019043	-488.48486328125	-627.5581665039062	514.483642578125	-264.2400207519531	-730.7705078125	749.30859375	-226.6001586914062	-658.6605224609375	74.93451690673828	-262.8164978027344	-597.85888671875	370.0013732910156	-262.6763000488281	-460.3450317382812	90.53921508789062	-269.8747253417969	-513.048828125	80.34312438964844	-319.7050476074219	-552.39697265625	78.79114532470703	-230.3908233642578	-701.73095703125	62.12732696533203	-317.4583129882812	-685.5003051757812	653.8033447265625	-634.2737426757812	nan	nan	nan	
167	1.66	-884.8829956054688	952.509765625	-370.4355163574219	-861.1575317382812	950.0640869140625	-491.7941589355469	-865.6318359375	1028.430419921875	-444.5532531738281	-626.6826171875	1164.974853515625	-415.8359985351562	-866.255615234375	1134.382446289062	-448.3464660644531	-787.4158935546875	1355.752685546875	-434.046630859375	-648.7835693359375	1263.973754882812	-417.1108093261719	-865.48193359375	1242.694702148438	-358.9108276367188	-807.9302368164062	1304.746826171875	-524.51025390625	-700.8312377929688	1343.56982421875	-584.9089965820312	-717.076904296875	1219.34375	-648.7891845703125	-720.6239624023438	1009.464111328125	-681.1002807617188	-798.86572265625	1005.732788085938	-618.5264282226562	-659.8806762695312	808.1744384765625	-636.6089477539062	-738.1586303710938	783.9786376953125	-683.8920288085938	-711.1160888671875	921.828369140625	-683.2007446289062	-720.5287475585938	728.30126953125	-680.7694091796875	-658.9296875	731.2501220703125	-659.1436767578125	-758.149169921875	1343.0322265625	-279.9865112304688	-796.2780151367188	1281.019409179688	-230.9227447509766	-868.1060791015625	1024.463134765625	-194.6330261230469	-905.8770751953125	1016.346130371094	-248.3789978027344	-818.4221801757812	800.8633422851562	-194.1988830566406	-908.7417602539062	798.2775268554688	-177.5252838134766	-881.1669311523438	971.3534545898438	-188.1439208984375	-860.1502685546875	647.1580810546875	-194.2621917724609	-838.5626831054688	710.0936889648438	-168.4585571289062	-907.1536865234375	726.1738891601562	-171.3082122802734	-749.119140625	1495.10009765625	-332.5539245605469	-591.546630859375	1560.368530273438	-438.1722106933594	-621.8106079101562	1544.889282226562	-315.2018432617188	-725.8001708984375	1511.2900390625	-489.6695861816406	-745.5863037109375	862.0128784179688	-604.8200073242188	-791.0316162109375	864.1896362304688	-224.872802734375	-691.599609375	902.1869506835938	-287.5668334960938	-656.6957397460938	892.6141357421875	-527.804931640625	-814.812744140625	451.1387023925781	-551.8238525390625	-766.4227294921875	601.212158203125	-575.990234375	-995.19482421875	49.97394561767578	-540.0486450195312	-877.7918090820312	312.7838134765625	-553.1367797851562	-811.3974609375	38.99801635742188	-449.3423767089844	-893.5658569335938	42.64171600341797	-428.3740539550781	-885.6533813476562	45.28470993041992	-529.925537109375	-1054.829711914062	46.17755126953125	-488.3190002441406	-621.143798828125	513.2669067382812	-262.3670349121094	-724.6444091796875	748.0445556640625	-225.3094482421875	-639.279296875	72.47588348388672	-259.2547607421875	-587.6934814453125	369.1845397949219	-260.6452331542969	-441.5842895507812	93.5218505859375	-269.2614440917969	-494.7207641601562	81.68577575683594	-318.2986450195312	-532.6835327148438	79.33467102050781	-228.4162902832031	-682.7320556640625	58.33159637451172	-313.3037719726562	-677.1160278320312	652.9190673828125	-632.5634765625	nan	nan	nan	
